<svg width="185" height="64" viewBox="0 0 185 64" fill="none" xmlns="http://www.w3.org/2000/svg">
<mask id="mask0_39_21" style="mask-type:alpha" maskUnits="userSpaceOnUse" x="0" y="0" width="185" height="64">
<path d="M17.054 3.14597C16.804 3.37597 16.664 3.68597 16.314 4.48597C15.964 5.29597 15.774 5.76598 15.304 7.15598C14.824 8.54598 14.524 9.52598 13.944 11.436C13.374 13.356 13.134 14.466 12.414 16.746C11.694 19.026 11.184 20.396 10.334 22.836C9.47405 25.276 9.01404 26.526 8.14404 28.956C7.27404 31.386 6.75405 32.716 5.97405 34.986C5.20405 37.246 4.82404 38.446 4.27404 40.286C3.71404 42.136 3.44405 42.966 3.19405 44.206C2.94405 45.446 3.01405 45.886 3.00405 46.486C2.98405 47.076 3.04404 47.036 3.10404 47.186C3.17404 47.336 3.20404 47.336 3.31404 47.226C3.42404 47.106 3.45405 47.156 3.65405 46.616C3.86405 46.076 3.96404 45.696 4.35404 44.516C4.74404 43.336 4.99404 42.526 5.60404 40.716C6.21404 38.906 6.59404 37.716 7.38404 35.476C8.18404 33.226 8.69405 31.896 9.58405 29.476C10.464 27.056 10.944 25.806 11.834 23.366C12.714 20.926 13.254 19.546 14.004 17.266C14.764 14.976 15.034 13.866 15.614 11.936C16.194 10.016 16.524 9.05599 16.904 7.63599C17.274 6.21599 17.344 5.69599 17.484 4.82599C17.624 3.96599 17.674 3.636 17.594 3.296C17.504 2.966 17.314 2.90597 17.054 3.14597Z" fill="currentColor" stroke="currentColor"/>
<path d="M26.0239 11.436C25.8739 11.556 25.9239 11.526 25.7339 11.976C25.5439 12.436 25.4439 12.696 25.0739 13.716C24.7039 14.736 24.4939 15.486 23.8739 17.086C23.2539 18.696 22.8339 19.746 21.9839 21.746C21.1439 23.756 20.6339 24.976 19.6539 27.126C18.6839 29.266 18.0939 30.406 17.0939 32.476C16.0939 34.546 15.5539 35.666 14.6639 37.476C13.7639 39.286 13.3439 40.156 12.6439 41.526C11.9439 42.906 11.6539 43.536 11.1739 44.356C10.7039 45.166 10.5239 45.386 10.2639 45.596C9.99395 45.796 9.96394 45.746 9.84394 45.366C9.71394 44.986 9.74394 44.586 9.62394 43.696C9.50394 42.806 9.39394 42.096 9.24394 40.916C9.09394 39.736 8.97394 39.056 8.88394 37.816C8.80394 36.576 8.80394 35.856 8.81394 34.696C8.82394 33.536 8.84395 32.976 8.94395 32.006C9.04395 31.046 9.13394 30.596 9.31394 29.886C9.50394 29.176 9.62395 28.916 9.86395 28.466C10.1139 28.006 10.2139 27.836 10.5239 27.606C10.8339 27.376 11.0039 27.356 11.4239 27.306C11.8339 27.256 12.0739 27.286 12.6039 27.346C13.1339 27.406 13.3839 27.476 14.0639 27.606C14.7539 27.726 15.1539 27.836 16.0239 27.966C16.9039 28.096 17.3739 28.216 18.4239 28.246C19.4839 28.286 20.0939 28.256 21.2939 28.146C22.4939 28.026 23.1439 27.926 24.4139 27.666C25.6939 27.406 26.3639 27.256 27.6639 26.866C28.9639 26.476 29.6839 26.176 30.9139 25.736C32.1539 25.286 32.8239 25.036 33.8539 24.626C34.8839 24.226 35.4339 23.946 36.0639 23.706C36.6939 23.476 36.8839 23.336 36.9939 23.456C37.1139 23.576 36.9839 23.706 36.6539 24.306C36.3239 24.896 35.9739 25.326 35.3439 26.426C34.7139 27.516 34.2539 28.316 33.5139 29.776C32.7839 31.236 32.3639 32.146 31.6639 33.726C30.9639 35.296 30.5639 36.176 30.0039 37.646C29.4439 39.126 29.1739 39.866 28.8639 41.096C28.5539 42.316 28.4339 42.896 28.4739 43.786C28.5139 44.666 28.6439 45.066 29.0539 45.526C29.4539 45.986 29.8039 46.136 30.5039 46.076C31.2039 46.006 31.6239 45.796 32.5539 45.196C33.4839 44.596 34.0339 44.116 35.1739 43.076C36.3039 42.036 36.9539 41.326 38.2339 39.996C39.5139 38.666 40.2039 37.846 41.5639 36.406C42.9139 34.956 43.6939 34.156 45.0039 32.776C46.3139 31.396 47.014 30.656 48.1139 29.496C49.2239 28.336 49.744 27.786 50.524 26.976C51.314 26.166 51.634 25.856 52.024 25.446C52.414 25.026 52.464 24.866 52.4739 24.916C52.4839 24.966 52.3039 25.106 52.0739 25.686C51.8339 26.256 51.6239 26.746 51.2939 27.806C50.9639 28.866 50.804 29.596 50.414 30.996C50.024 32.406 49.7839 33.216 49.3439 34.836C48.9039 36.456 48.6539 37.376 48.194 39.116C47.734 40.846 47.514 41.816 47.054 43.536C46.594 45.256 46.3939 46.146 45.8939 47.726C45.3939 49.306 45.1439 50.056 44.5639 51.436C43.9739 52.826 43.6339 53.526 42.9639 54.656C42.3039 55.786 41.9439 56.276 41.2439 57.096C40.5339 57.906 40.1539 58.236 39.4339 58.716C38.7039 59.206 38.2739 59.326 37.6239 59.516C36.9739 59.706 36.6539 59.766 36.1839 59.656C35.7039 59.556 35.5139 59.426 35.2539 59.006C34.9939 58.596 34.8639 58.306 34.8939 57.596C34.9139 56.886 34.9939 56.466 35.3839 55.456C35.7639 54.446 36.0339 53.776 36.7939 52.556C37.5539 51.336 38.0139 50.666 39.1739 49.356C40.3339 48.046 41.054 47.386 42.604 46.006C44.154 44.626 45.0939 43.846 46.9239 42.446C48.7539 41.046 49.7939 40.316 51.7339 39.006C53.6739 37.696 54.714 37.056 56.634 35.896C58.554 34.736 59.574 34.186 61.334 33.216C63.0939 32.246 63.9539 31.806 65.444 31.046C66.924 30.286 67.5939 29.986 68.7639 29.416C69.9239 28.846 70.4439 28.646 71.2639 28.196C72.0939 27.756 72.4239 27.586 72.8939 27.186C73.3639 26.786 73.5239 26.596 73.6139 26.196C73.7039 25.786 73.6539 25.506 73.3439 25.176C73.0339 24.846 72.7339 24.606 72.0639 24.536C71.4039 24.466 70.904 24.526 70.024 24.826C69.134 25.116 68.6239 25.416 67.6439 26.026C66.6639 26.636 66.0939 27.026 65.1239 27.876C64.1539 28.726 63.5839 29.286 62.7939 30.266C62.0039 31.256 61.6739 31.856 61.1839 32.806C60.6839 33.766 60.4939 34.246 60.334 35.056C60.174 35.856 60.1539 36.236 60.3739 36.816C60.5939 37.396 60.854 37.686 61.444 37.946C62.024 38.216 62.4739 38.276 63.304 38.146C64.134 38.006 64.624 37.786 65.584 37.256C66.5439 36.726 67.074 36.306 68.104 35.506C69.134 34.706 69.7239 34.176 70.7339 33.246C71.7439 32.326 72.3839 31.716 73.1639 30.866C73.9339 30.016 74.2939 29.526 74.5939 29.006C74.9039 28.486 74.8739 28.286 74.6739 28.266C74.4839 28.236 74.1339 28.366 73.6339 28.876C73.1339 29.386 72.6139 29.936 72.1739 30.816C71.7439 31.686 71.5839 32.336 71.4539 33.246C71.3339 34.156 71.284 34.646 71.5539 35.356C71.8239 36.076 72.1039 36.436 72.8139 36.806C73.5339 37.176 74.0639 37.296 75.1239 37.196C76.1939 37.086 76.8339 36.836 78.1639 36.266C79.4839 35.696 80.2739 35.226 81.7539 34.346C83.2339 33.466 84.1039 32.866 85.5639 31.876C87.0239 30.876 87.854 30.276 89.0539 29.366C90.2639 28.456 90.9039 27.956 91.5839 27.326C92.2639 26.696 92.4339 26.426 92.4539 26.226C92.4839 26.026 92.2039 26.046 91.7239 26.316C91.2439 26.596 90.7539 26.896 90.0639 27.596C89.3839 28.286 88.9039 28.886 88.3039 29.776C87.6939 30.666 87.3839 31.226 87.0439 32.046C86.7039 32.856 86.5639 33.246 86.604 33.846C86.654 34.436 86.8039 34.736 87.2539 35.026C87.7039 35.326 88.0539 35.396 88.8739 35.316C89.6839 35.236 90.2239 35.056 91.3339 34.606C92.4439 34.166 93.144 33.736 94.4139 33.086C95.6839 32.436 96.4339 31.986 97.6939 31.356C98.9539 30.726 99.6939 30.376 100.704 29.936C101.704 29.486 102.224 29.266 102.724 29.126C103.214 28.976 103.214 28.976 103.174 29.216C103.134 29.446 102.864 29.736 102.514 30.306C102.154 30.886 101.764 31.296 101.404 32.096C101.044 32.896 100.784 33.476 100.704 34.306C100.614 35.136 100.664 35.646 100.984 36.266C101.304 36.886 101.584 37.136 102.304 37.386C103.024 37.636 103.484 37.686 104.564 37.526C105.654 37.366 106.294 37.126 107.714 36.576C109.124 36.026 109.974 35.646 111.634 34.786C113.304 33.916 114.264 33.366 116.064 32.276C117.854 31.176 118.784 30.516 120.594 29.306C122.404 28.106 123.394 27.476 125.114 26.246C126.844 25.026 127.724 24.376 129.214 23.186C130.694 22.006 131.414 21.396 132.514 20.336C133.624 19.276 134.184 18.706 134.744 17.876C135.294 17.056 135.424 16.626 135.314 16.196C135.204 15.776 134.884 15.646 134.214 15.756C133.544 15.866 133.004 16.086 131.984 16.746C130.954 17.416 130.324 17.986 129.084 19.106C127.854 20.216 127.104 20.976 125.824 22.346C124.534 23.706 123.804 24.516 122.654 25.936C121.504 27.366 120.944 28.146 120.094 29.476C119.244 30.806 118.874 31.456 118.404 32.586C117.934 33.716 117.824 34.216 117.724 35.126C117.624 36.036 117.684 36.406 117.894 37.116C118.104 37.826 118.284 38.156 118.794 38.676C119.294 39.196 119.664 39.416 120.424 39.736C121.174 40.056 121.664 40.156 122.544 40.276C123.434 40.386 123.874 40.386 124.854 40.306C125.834 40.236 126.324 40.136 127.434 39.886C128.534 39.636 129.134 39.476 130.374 39.076C131.604 38.666 132.254 38.416 133.594 37.866C134.934 37.316 135.644 36.996 137.074 36.326C138.504 35.656 139.284 35.296 140.744 34.516C142.204 33.726 142.994 33.276 144.384 32.406C145.764 31.526 146.434 31.026 147.664 30.146C148.904 29.276 149.564 28.856 150.534 28.046C151.514 27.226 151.944 26.806 152.544 26.076C153.144 25.346 153.344 25.006 153.534 24.376C153.724 23.746 153.744 23.416 153.504 22.926C153.254 22.446 152.964 22.086 152.304 21.956C151.644 21.816 151.104 21.896 150.214 22.256C149.314 22.606 148.784 22.996 147.814 23.736C146.844 24.476 146.274 24.926 145.344 25.956C144.414 26.986 143.874 27.696 143.184 28.866C142.494 30.046 142.204 30.726 141.894 31.836C141.584 32.956 141.524 33.486 141.634 34.446C141.744 35.396 141.894 35.866 142.464 36.606C143.034 37.346 143.504 37.716 144.504 38.166C145.504 38.606 146.174 38.756 147.464 38.846C148.744 38.936 149.454 38.866 150.914 38.606C152.374 38.346 153.204 38.136 154.764 37.546C156.314 36.956 157.174 36.486 158.694 35.646C160.214 34.816 160.984 34.276 162.364 33.356C163.734 32.426 164.414 31.956 165.564 31.026C166.714 30.086 167.264 29.556 168.114 28.686C168.954 27.806 169.334 27.416 169.784 26.656C170.234 25.896 170.364 25.516 170.364 24.876C170.364 24.236 170.234 23.836 169.774 23.466C169.314 23.096 168.884 22.976 168.074 23.026C167.254 23.066 166.704 23.206 165.704 23.706C164.704 24.216 164.094 24.656 163.074 25.556C162.054 26.456 161.464 27.076 160.614 28.196C159.754 29.306 159.334 29.946 158.804 31.136C158.274 32.336 158.034 33.006 157.964 34.156C157.884 35.296 157.924 35.916 158.404 36.886C158.894 37.856 159.304 38.366 160.374 39.026C161.434 39.676 162.174 39.926 163.734 40.156C165.284 40.386 166.194 40.366 168.164 40.176C170.124 39.986 171.544 39.696 173.564 39.206C175.594 38.716 176.724 38.326 178.284 37.736C179.854 37.146 180.814 36.636 181.404 36.236C181.994 35.836 181.924 35.686 181.224 35.726C180.524 35.776 179.514 36.106 177.904 36.456C176.294 36.806 175.174 37.086 173.184 37.496C171.204 37.896 169.824 38.246 167.974 38.486C166.114 38.716 165.294 38.796 163.904 38.666C162.524 38.546 161.914 38.336 161.024 37.876C160.144 37.416 159.824 37.076 159.464 36.356C159.114 35.636 159.104 35.196 159.234 34.276C159.364 33.366 159.594 32.786 160.114 31.776C160.644 30.756 161.064 30.186 161.884 29.206C162.704 28.226 163.294 27.676 164.224 26.876C165.154 26.066 165.704 25.686 166.524 25.186C167.344 24.676 167.754 24.556 168.314 24.356C168.874 24.156 169.074 24.086 169.304 24.176C169.534 24.266 169.554 24.426 169.454 24.786C169.354 25.146 169.264 25.406 168.804 25.996C168.344 26.576 167.984 26.936 167.154 27.716C166.334 28.496 165.794 29.026 164.664 29.906C163.544 30.776 162.884 31.226 161.534 32.106C160.184 32.976 159.404 33.476 157.934 34.266C156.474 35.066 155.664 35.506 154.194 36.066C152.734 36.626 151.964 36.826 150.634 37.076C149.304 37.316 148.664 37.356 147.544 37.316C146.424 37.266 145.864 37.146 145.024 36.856C144.194 36.566 143.814 36.366 143.364 35.866C142.924 35.366 142.824 35.066 142.784 34.346C142.754 33.626 142.854 33.186 143.204 32.266C143.554 31.336 143.854 30.736 144.534 29.706C145.214 28.676 145.724 28.026 146.594 27.106C147.454 26.186 148.004 25.776 148.874 25.106C149.734 24.426 150.244 24.116 150.914 23.716C151.594 23.306 151.884 23.156 152.254 23.066C152.624 22.976 152.704 23.086 152.774 23.276C152.854 23.466 152.854 23.606 152.624 24.006C152.394 24.396 152.224 24.656 151.624 25.246C151.034 25.836 150.624 26.216 149.664 26.956C148.704 27.696 148.044 28.116 146.834 28.946C145.614 29.786 144.944 30.286 143.584 31.126C142.224 31.966 141.454 32.396 140.024 33.156C138.594 33.926 137.824 34.276 136.424 34.936C135.024 35.586 134.314 35.906 133.004 36.436C131.694 36.966 131.064 37.206 129.884 37.596C128.704 37.996 128.114 38.166 127.094 38.406C126.064 38.656 125.604 38.766 124.734 38.836C123.864 38.906 123.504 38.856 122.734 38.766C121.974 38.666 121.554 38.566 120.924 38.376C120.294 38.186 119.994 38.116 119.594 37.806C119.194 37.496 119.054 37.326 118.904 36.816C118.754 36.316 118.704 36.026 118.834 35.286C118.964 34.536 119.064 34.116 119.554 33.106C120.044 32.106 120.424 31.496 121.284 30.266C122.144 29.036 122.714 28.286 123.864 26.946C125.024 25.596 125.754 24.826 127.054 23.536C128.354 22.246 129.154 21.566 130.344 20.476C131.534 19.386 132.154 18.856 133.004 18.076C133.864 17.306 134.224 16.966 134.604 16.586C134.984 16.196 135.064 16.056 134.914 16.166C134.764 16.276 134.524 16.506 133.854 17.136C133.184 17.766 132.684 18.336 131.574 19.316C130.464 20.296 129.774 20.916 128.314 22.056C126.854 23.196 125.964 23.826 124.254 25.016C122.534 26.206 121.544 26.836 119.744 28.016C117.934 29.186 117.004 29.836 115.224 30.886C113.454 31.936 112.504 32.456 110.874 33.276C109.244 34.096 108.394 34.436 107.074 34.996C105.754 35.556 105.154 35.796 104.254 36.056C103.344 36.326 103.024 36.366 102.564 36.336C102.094 36.296 102.004 36.216 101.934 35.876C101.854 35.536 101.974 35.246 102.214 34.646C102.444 34.036 102.784 33.616 103.114 32.856C103.444 32.086 103.704 31.576 103.854 30.806C104.004 30.046 104.074 29.566 103.844 29.046C103.614 28.516 103.424 28.296 102.694 28.186C101.964 28.086 101.334 28.196 100.194 28.526C99.0539 28.856 98.2939 29.246 96.9739 29.836C95.6539 30.426 94.8739 30.846 93.604 31.476C92.324 32.106 91.6239 32.476 90.604 32.966C89.5939 33.466 89.1439 33.696 88.5339 33.976C87.9239 34.246 87.7639 34.346 87.5639 34.346C87.3539 34.346 87.3539 34.266 87.5139 33.956C87.6739 33.646 87.8739 33.396 88.354 32.796C88.834 32.196 89.284 31.766 89.9139 30.956C90.5539 30.146 91.0139 29.566 91.5239 28.756C92.034 27.946 92.2939 27.466 92.4639 26.906C92.6439 26.346 92.7039 26.076 92.3839 25.966C92.074 25.856 91.7539 25.916 90.9039 26.346C90.0539 26.766 89.4039 27.256 88.1539 28.086C86.9039 28.916 86.0939 29.536 84.6339 30.486C83.184 31.436 82.3039 32.016 80.8739 32.866C79.4439 33.716 78.6639 34.156 77.4639 34.736C76.2639 35.316 75.7339 35.556 74.8939 35.776C74.0439 35.986 73.7039 35.936 73.2539 35.806C72.7939 35.666 72.6339 35.506 72.5939 35.076C72.5539 34.646 72.7539 34.336 73.0439 33.656C73.3339 32.986 73.6739 32.516 74.0339 31.696C74.4039 30.876 74.6939 30.256 74.8639 29.576C75.0339 28.886 75.0839 28.526 74.8939 28.266C74.7039 28.006 74.4939 27.986 73.9239 28.276C73.3539 28.566 72.8939 28.966 72.0339 29.706C71.1639 30.446 70.584 31.096 69.584 31.986C68.5939 32.876 68.024 33.396 67.054 34.166C66.084 34.926 65.564 35.306 64.744 35.826C63.914 36.346 63.5439 36.526 62.944 36.756C62.354 36.986 62.1039 37.016 61.7639 36.976C61.4239 36.926 61.3039 36.866 61.2539 36.546C61.2039 36.226 61.2639 35.986 61.5039 35.376C61.7439 34.776 61.9339 34.326 62.4339 33.506C62.9339 32.686 63.2539 32.156 64.0139 31.276C64.7639 30.406 65.3039 29.906 66.2139 29.146C67.1139 28.386 67.6639 28.016 68.5439 27.476C69.4239 26.936 69.9039 26.736 70.6239 26.446C71.3339 26.146 71.6639 26.106 72.1239 25.996C72.5739 25.886 72.714 25.886 72.8839 25.876C73.0639 25.866 73.1139 25.846 73.0039 25.936C72.8839 26.026 72.7639 26.106 72.3139 26.346C71.8539 26.586 71.5539 26.756 70.7339 27.136C69.9139 27.526 69.3939 27.726 68.2139 28.266C67.0339 28.806 66.354 29.106 64.834 29.846C63.324 30.586 62.4439 31.006 60.6539 31.956C58.8639 32.916 57.8339 33.476 55.8739 34.626C53.9239 35.786 52.864 36.416 50.884 37.736C48.894 39.046 47.8239 39.766 45.9639 41.186C44.0939 42.606 43.144 43.396 41.554 44.826C39.954 46.246 39.2239 46.936 37.9939 48.306C36.7739 49.686 36.2339 50.366 35.4139 51.696C34.5939 53.026 34.2739 53.756 33.8939 54.946C33.5139 56.136 33.4439 56.686 33.5239 57.636C33.6039 58.586 33.8139 59.066 34.2939 59.686C34.7639 60.316 35.1739 60.556 35.9039 60.756C36.6239 60.966 37.0939 60.926 37.9339 60.726C38.7839 60.536 39.2739 60.346 40.1339 59.786C40.9939 59.236 41.424 58.856 42.2239 57.966C43.0239 57.076 43.4239 56.556 44.1439 55.356C44.8739 54.166 45.224 53.426 45.854 51.986C46.474 50.546 46.7239 49.776 47.2639 48.166C47.7939 46.556 48.0239 45.666 48.5139 43.936C49.0039 42.206 49.2339 41.256 49.7139 39.516C50.1939 37.786 50.434 36.896 50.914 35.286C51.384 33.676 51.684 32.896 52.104 31.486C52.524 30.076 52.7739 29.376 53.0039 28.246C53.2439 27.116 53.3339 26.576 53.2839 25.846C53.2239 25.116 53.084 24.816 52.7239 24.586C52.374 24.356 52.1239 24.406 51.5039 24.696C50.8939 24.986 50.5339 25.286 49.6539 26.046C48.7639 26.806 48.2439 27.356 47.0939 28.486C45.9439 29.616 45.2339 30.346 43.8939 31.706C42.5539 33.066 41.7639 33.866 40.3839 35.286C39.0039 36.706 38.2939 37.506 37.0139 38.806C35.7239 40.106 35.0439 40.756 33.9639 41.786C32.8839 42.816 32.3539 43.286 31.6139 43.956C30.8739 44.626 30.6439 44.906 30.2539 45.126C29.8639 45.356 29.7839 45.336 29.6539 45.066C29.5239 44.806 29.4939 44.546 29.5939 43.826C29.7039 43.106 29.8139 42.586 30.1739 41.466C30.5339 40.346 30.8139 39.626 31.4139 38.216C32.0139 36.806 32.4339 35.956 33.1739 34.426C33.9239 32.906 34.3939 32.046 35.1339 30.606C35.8739 29.156 36.3639 28.406 36.9039 27.216C37.4339 26.026 37.6839 25.486 37.7939 24.656C37.9039 23.816 37.8339 23.436 37.4439 23.026C37.0639 22.606 36.6639 22.536 35.8439 22.576C35.0239 22.616 34.4439 22.876 33.3539 23.216C32.2639 23.556 31.6239 23.846 30.4039 24.286C29.1739 24.716 28.4839 25.016 27.2239 25.396C25.9639 25.766 25.3339 25.916 24.1139 26.156C22.9039 26.386 22.2739 26.476 21.1439 26.576C20.0139 26.686 19.4539 26.716 18.4739 26.676C17.4939 26.646 17.0839 26.536 16.2539 26.426C15.4139 26.306 15.0139 26.206 14.3039 26.106C13.5939 26.006 13.3239 25.946 12.6939 25.936C12.0639 25.916 11.7239 25.886 11.1539 26.046C10.5839 26.206 10.2839 26.346 9.82395 26.716C9.37395 27.086 9.21395 27.326 8.86395 27.886C8.52395 28.446 8.36395 28.736 8.10395 29.526C7.84395 30.316 7.72394 30.806 7.56394 31.826C7.40394 32.856 7.38394 33.436 7.31394 34.646C7.25394 35.866 7.20394 36.586 7.23394 37.886C7.25394 39.186 7.27395 39.906 7.43395 41.146C7.60395 42.396 7.72394 43.146 8.06394 44.096C8.41394 45.036 8.66394 45.466 9.16394 45.886C9.65394 46.316 9.95395 46.396 10.5439 46.216C11.1239 46.036 11.4339 45.806 12.0939 44.996C12.7439 44.176 13.0539 43.536 13.8239 42.156C14.5939 40.786 15.0239 39.926 15.9539 38.126C16.8839 36.326 17.4439 35.216 18.4739 33.156C19.5139 31.096 20.1139 29.956 21.1439 27.816C22.1639 25.676 22.7139 24.466 23.6039 22.446C24.4939 20.426 24.9739 19.396 25.5939 17.736C26.2039 16.086 26.4539 15.306 26.6939 14.186C26.9339 13.056 26.8439 12.676 26.7939 12.126C26.7439 11.576 26.6039 11.556 26.4439 11.416C26.2839 11.276 26.1639 11.326 26.0239 11.436Z" fill="currentColor" stroke="currentColor"/>
</mask>
<g mask="url(#mask0_39_21)">
<path d="M17.0001 3.99998L13.5001 16L5.50005 39C5.50005 39 5.49767 39.1304 3.50005 46.5C1.50244 53.8696 -1.359 15.158 12.5001 0.999982C26.3591 -13.158 26.5 11.5 26.5 11.5C26.12 13.381 25.1752 16.7731 25 16.5L22.5 23L14.5001 39.5L11.5001 45C11.5001 45 10.6904 46.138 10.0001 46C9.4585 45.8917 9.00006 45 9.00006 45C9.00006 45 8.27105 41.0539 8.00006 38.5C7.83832 36.9757 8.00006 33.5 8.00006 33.5C8.00006 33.5 8.83177 27.2811 10.5001 26.5C12.1014 25.7502 13.2361 26.878 15.0001 27C17.922 27.202 19.5882 27.3157 22.5 27C25.2795 26.6986 26.81 26.2614 29.5 25.5C32.2931 24.7095 35.5001 23 36.5001 23C37.5001 23 37.5001 23.5 37.5001 24C37.5001 24.5 35.0001 29 35.0001 29C35.0001 29 32.3735 34.0981 31 37.5C30.1444 39.6192 29 43 29 43C29 43 28.5 44.5 29 45C29.5 45.5 29.5738 45.4053 30 45.5C30.7859 45.6746 32 45 32 45L49.0001 27.5C49.0001 27.5 51.5001 24.5 52.5001 25C53.5001 25.5 52.0001 29 52.0001 29C51.7672 28.9741 47.0001 46.5 47.0001 46.5C47.0001 46.5 45.4329 52.7929 43.0001 56C41.6649 57.76 41.1135 59.3568 39.0001 60C37.6924 60.398 37.0001 60.5 35.5001 60C34.0001 59.5 34.0001 58 34.0001 57C34.0001 56 35.2985 53.5017 36.5001 51.5C37.7016 49.4983 47.1806 40.5506 47.0001 41L58.5001 34L64.0001 31C64.0001 31 68.4777 29.2258 71.0001 27.5C71.8059 26.9487 73.0001 26.5 73.0001 26C73.0001 25.5 73.0001 25 72.0001 25C71.0001 25 69.4358 25.6503 68.0001 26.5C66.6877 27.2767 66.082 27.9252 65.0001 29C63.4206 30.569 62.241 31.4006 61.5001 33.5C61.1687 34.4389 61.0001 35.5 61.0001 36C61.0001 36.5 60.9924 37.1485 61.5001 37.5C61.9817 37.8334 62.4202 37.5828 63.0001 37.5C64.2968 37.3147 64.895 36.7032 66.0001 36C67.5188 35.0335 68.1425 34.1822 69.5001 33C71.2733 31.4559 74.0001 29 74.0001 29C74.0001 29 74.0001 28.5 74.5001 28.5C75.0001 28.5 74.5091 28.8049 74.5001 29C74.4315 30.4855 73.6361 31.1558 73.0001 32.5C72.6266 33.2893 72.0001 33.6267 72.0001 34.5C72.0001 35.1174 72.0785 35.5488 72.5001 36C73.0498 36.5882 73.6959 36.4617 74.5001 36.5C75.4946 36.5473 76.0546 36.3119 77.0001 36C79.8007 35.0761 83.8667 31.9585 84.0001 32C84.0001 32 91.5001 26.5 92.0001 26.5C92.5001 26.5 90.0675 28.8649 89.0001 30.5C88.3777 31.4533 87.7058 31.8801 87.5001 33C87.3943 33.5761 87.0001 34 87.5001 34.5C88.0001 35 89.5001 34.5 89.5001 34.5L92.0001 33.5L97.5001 30.5C97.5001 30.5 99.5273 29.2055 101 29C101.774 28.892 102.5 29 103 29C103.5 29 103.5 29.5 103.5 30C103.5 30.5 102.499 31.7888 102 33C101.53 34.1419 101 35.5 101 36C101 36.5 102 37 102 37C102 37 102.915 37.0313 103.5 37C106.152 36.8579 107 36 107 36C108.228 35.8369 127.596 24.8551 127 24.5L133.5 18.5C133.5 18.5 134.5 17.5 134.5 17C134.5 16.5 134 16 133.5 16.5C133 17 129.007 19.9161 126.5 22.5C123.888 25.1918 122.315 26.7172 120.5 30C119.57 31.6831 118.802 32.6007 118.5 34.5C118.316 35.657 117.976 36.4521 118.5 37.5C118.871 38.2409 120 39 120 39C120 39 123.202 39.4037 125 39.5C128.216 39.6722 134.5 36.5 134.5 36.5L143 32.5C146.337 30.7008 151 27 151 27C151 27 152.762 25.3878 153 24C153.099 23.4226 153.5 23 153 22.5C152.5 22 151.437 22.7732 150 23.5C147.656 24.6857 145.984 26.3322 144.5 28.5C142.658 31.5876 141.908 33.2243 142.5 35.5C142.746 36.4448 143.755 36.8693 144.5 37.5C146.167 38.9101 150 38 150 38C150 38 152.657 37.8718 154.5 37C156.941 35.8452 158.351 35.1051 161 33.5C163.99 31.7261 165.817 30.7057 168 28C168.884 26.9041 169.825 26.3972 170 25C170.048 24.6125 170 25 170 24C170 23 168.815 23.6259 167.5 24C165.884 24.4597 164.215 25.8402 163 27C161.588 28.3482 160.904 28.7692 160 30.5C158.508 34.0875 158.352 35.4509 159 37C159.482 38.1534 160.359 38.488 161.5 39C162.76 39.5653 163.622 39.4158 165 39.5C168.143 39.6919 169.922 39.1621 173 38.5C176.2 37.8116 181 36 181 36" stroke="currentColor" stroke-width="3" stroke-linecap="round"/>
</g>
</svg>
